<svg width="22" height="20" fill="none" xmlns="http://www.w3.org/2000/svg"><path d="M3.7 1.3a1 1 0 1 0-1.4 1.4l5.6 5.6a3.5 3.5 0 0 0 4.8 4.8l5.6 5.6a1 1 0 0 0 1.4 0 1 1 0 0 0 0-1.4l-16-16ZM11 11.5A1.5 1.5 0 0 1 9.5 10l1.6 1.5H11Z" fill="#929BAD"/><path d="M11.2 15c-4.3.1-7.1-3.6-8-5 .6-1 1.4-2 2.3-2.7L4 5.9c-1.1 1-2.1 2.3-2.9 3.6a1 1 0 0 0 0 1c.7 1 4 6.5 10 6.5h.2c1 0 2.2-.3 3.2-.7l-1.6-1.6c-.5.2-1.1.3-1.7.3ZM21 9.5c-.7-1.1-4.2-6.7-10.2-6.5-1 0-2.2.3-3.2.7l1.6 1.5 1.7-.2c4.3-.1 7 3.6 8 5-.7 1-1.4 2-2.3 2.7l1.5 1.4c1.1-1 2.1-2.3 3-3.6a1 1 0 0 0-.1-1Z" fill="#929BAD"/></svg>